<?xml version="1.0" encoding="UTF-8" standalone="no"?>
<svg
   height="1024"
   viewBox="0 0 270.93299 270.93157"
   width="1024"
   version="1.1"
   id="svg8"
   sodipodi:docname="icon.svg"
   inkscape:version="1.3.2 (091e20ef0f, 2023-11-25, custom)"
   inkscape:export-filename="app/src/main/res/mipmap/ic_launcher.png"
   inkscape:export-xdpi="48"
   inkscape:export-ydpi="48"
   xmlns:inkscape="http://www.inkscape.org/namespaces/inkscape"
   xmlns:sodipodi="http://sodipodi.sourceforge.net/DTD/sodipodi-0.dtd"
   xmlns="http://www.w3.org/2000/svg"
   xmlns:svg="http://www.w3.org/2000/svg">
  <defs
     id="defs8" />
  <sodipodi:namedview
     id="namedview8"
     pagecolor="#505050"
     bordercolor="#eeeeee"
     borderopacity="1"
     inkscape:showpageshadow="0"
     inkscape:pageopacity="0"
     inkscape:pagecheckerboard="0"
     inkscape:deskcolor="#d1d1d1"
     showgrid="false"
     inkscape:zoom="0.14778532"
     inkscape:cx="1502.179"
     inkscape:cy="71.049007"
     inkscape:window-width="1920"
     inkscape:window-height="1004"
     inkscape:window-x="0"
     inkscape:window-y="0"
     inkscape:window-maximized="1"
     inkscape:current-layer="g8" />
  <metadata
     id="metadata1" />
  <g
     transform="translate(-66.97,-261.92)"
     id="g8">
    <path
       d="M 305.85538,438.39651 H 288.61829 V 366.3058 c 0,-47.5729 -38.60997,-86.18286 -86.18287,-86.18286 -47.57291,0 -86.18285,38.60996 -86.18285,86.18286 v 72.09071 H 99.015995 305.85699 Z m -49.98967,0 H 148.99877 V 366.3058 c 0,-29.47472 23.95877,-53.43084 53.43083,-53.43084 29.4747,0 53.43083,23.95877 53.43083,53.43084 z"
       id="path3"
       sodipodi:nodetypes="ccssscsscccsscc"
       style="fill:#ffffff;stroke-width:7.93748994;stroke-dasharray:none;stroke:#b4b4b4;stroke-opacity:1;fill-opacity:1" />
    <rect
       style="fill:#000000;fill-opacity:1;fill-rule:evenodd;stroke-width:1.19062;paint-order:markers stroke fill"
       id="rect8"
       width="169.18669"
       height="40.376465"
       x="118.34521"
       y="440.38742" />
    <path
       d="m 268.53265,401.55341 c -8.31543,-4.28598 -0.47506,0.20405 -8.14041,-4.33656 -17.37204,-8.4531 -36.92656,-13.16678 -57.9559,-13.16678 -21.02924,0 -40.58386,4.71361 -57.95589,13.16678 -7.86371,4.11889 -2.94714,1.63865 -8.16992,4.33656 -38.75521,22.37404 -65.004999,64.16815 -69.340529,113.09522 H 337.903 C 333.56737,465.72124 307.31759,423.92701 268.53297,401.55341 Z M 140.2333,474.11176 c -6.28225,0 -11.35522,-5.43636 -11.35522,-12.09828 0,-6.69339 5.10247,-12.09832 11.35522,-12.09832 6.28224,0 11.35521,5.43637 11.35521,12.09832 0.0296,6.66191 -5.07298,12.09828 -11.35521,12.09828 z m 124.37688,0 c -6.28223,0 -11.35522,-5.43636 -11.35522,-12.09828 0,-6.69339 5.10249,-12.09832 11.35522,-12.09832 6.28224,0 11.35523,5.43637 11.35523,12.09832 0.0295,6.66191 -5.07298,12.09828 -11.35523,12.09828 z"
       fill="#32de84"
       stroke-width="0.288"
       id="path8"
       style="fill:#e9c30a;fill-opacity:1"
       sodipodi:nodetypes="ccsccccccssscsssscs" />
  </g>
</svg>
